HIERARCHY
ROOT joint_Root
{
	OFFSET 0.0 0.0 0.0
	CHANNELS 6 Xposition Yposition Zposition Zrotation Xrotation Yrotation 
	JOINT Hips
	{
		OFFSET -0.726466 93.3139 -2.00062
		CHANNELS 6 Xposition Yposition Zposition Zrotation Xrotation Yrotation 
		JOINT Spine
		{
			OFFSET 15.7357 0.0 0.0
			CHANNELS 6 Xposition Yposition Zposition Zrotation Xrotation Yrotation 
			JOINT Chest
			{
				OFFSET 8.98455 -0.406207 0.0
				CHANNELS 6 Xposition Yposition Zposition Zrotation Xrotation Yrotation 
				JOINT Neck
				{
					OFFSET 16.3773 0.0 0.0
					CHANNELS 6 Xposition Yposition Zposition Zrotation Xrotation Yrotation 
					JOINT Head
					{
						OFFSET 6.45672 0.0 0.0
						CHANNELS 6 Xposition Yposition Zposition Zrotation Xrotation Yrotation 
						End Site
						{
							OFFSET 0.0 0.0 0.0
						}
					}
				}
				JOINT Shoulder_L
				{
					OFFSET 12.9942 -0.242716 4.98039
					CHANNELS 6 Xposition Yposition Zposition Zrotation Xrotation Yrotation 
					JOINT UpperArm_L
					{
						OFFSET 5.34809 0.0 0.0
						CHANNELS 6 Xposition Yposition Zposition Zrotation Xrotation Yrotation 
						JOINT LowerArm_L
						{
							OFFSET 24.3286 1.87007e-05 0.0
							CHANNELS 6 Xposition Yposition Zposition Zrotation Xrotation Yrotation 
							JOINT Hand_L
							{
								OFFSET 22.2916 0.0 0.0
								CHANNELS 6 Xposition Yposition Zposition Zrotation Xrotation Yrotation 
								End Site
								{
									OFFSET 0.0 0.0 0.0
								}
							}
						}
					}
				}
				JOINT Shoulder_R
				{
					OFFSET 12.9945 -0.242716 -4.98039
					CHANNELS 6 Xposition Yposition Zposition Zrotation Xrotation Yrotation 
					JOINT UpperArm_R
					{
						OFFSET -5.34813 0.0 0.0
						CHANNELS 6 Xposition Yposition Zposition Zrotation Xrotation Yrotation 
						JOINT LowerArm_R
						{
							OFFSET -24.3289 0.000322201 0.0
							CHANNELS 6 Xposition Yposition Zposition Zrotation Xrotation Yrotation 
							JOINT Hand_R
							{
								OFFSET -22.2915 -0.000108084 0.0
								CHANNELS 6 Xposition Yposition Zposition Zrotation Xrotation Yrotation 
								End Site
								{
									OFFSET 0.0 0.0 0.0
								}
							}
						}
					}
				}
			}
		}
		JOINT UpperLeg_L
		{
			OFFSET -2.19248 -6.46944 0.0
			CHANNELS 6 Xposition Yposition Zposition Zrotation Xrotation Yrotation 
			JOINT LowerLeg_L
			{
				OFFSET 39.0811 0.0 -1.23785e-05
				CHANNELS 6 Xposition Yposition Zposition Zrotation Xrotation Yrotation 
				JOINT Foot_L
				{
					OFFSET 40.9854 0.0 -1.26872e-05
					CHANNELS 6 Xposition Yposition Zposition Zrotation Xrotation Yrotation 
					JOINT Toes_L
					{
						OFFSET 11.7543 0.0 0.0
						CHANNELS 6 Xposition Yposition Zposition Zrotation Xrotation Yrotation 
						End Site
						{
							OFFSET 0.0 0.0 0.0
						}
					}
				}
			}
		}
		JOINT UpperLeg_R
		{
			OFFSET -2.19251 6.46944 0.0
			CHANNELS 6 Xposition Yposition Zposition Zrotation Xrotation Yrotation 
			JOINT LowerLeg_R
			{
				OFFSET -39.0811 -0.00228153 -0.0401928
				CHANNELS 6 Xposition Yposition Zposition Zrotation Xrotation Yrotation 
				JOINT Foot_R
				{
					OFFSET -40.9854 0.0 0.0
					CHANNELS 6 Xposition Yposition Zposition Zrotation Xrotation Yrotation 
					JOINT Toes_R
					{
						OFFSET -11.7543 0.0 0.0
						CHANNELS 6 Xposition Yposition Zposition Zrotation Xrotation Yrotation 
						End Site
						{
							OFFSET 0.0 0.0 0.0
						}
					}
				}
			}
		}
	}
}
MOTION
Frames:	7
Frame Time:	0.0333333
0.000000 0.000000 0.000000 0.000000 0.000000 -0.000000 -1.189410 92.297600 -3.545110 86.981200 -4.531970 3.411610 15.735700 0.000005 -0.000001 93.392200 85.702300 -94.506600 8.984550 -0.406207 -0.000000 0.820853 0.575924 -2.231280 16.377300 -0.000001 -0.000001 2.187620 -2.966050 3.276110 6.456720 -0.000001 -0.000000 -2.127310 -1.223130 -9.456020 12.994200 -0.242716 4.980390 -88.816100 -3.560890 -71.596100 5.348090 -0.000007 -0.000001 25.767300 75.052600 -75.300300 24.328600 0.000019 0.000005 13.893500 1.854160 -82.547700 22.291600 -0.000001 0.000005 41.866000 5.600940 -30.842900 12.994500 -0.242716 -4.980390 92.285500 -4.816300 -64.576000 -5.348130 -0.000001 -0.000004 -70.284800 -55.696600 -107.242000 -24.328900 0.000322 -0.000009 -6.079540 -3.801960 -58.089600 -22.291500 -0.000108 -0.000004 21.191200 5.530080 -7.799120 -2.192480 -6.469440 -0.000000 -168.387000 -16.347000 -2.582510 39.081100 -0.000007 -0.000012 -0.165350 0.428619 21.095400 40.985400 -0.000006 -0.000013 -6.026110 1.749910 -62.949800 11.754300 -0.000000 0.000003 -0.000034 -0.000408 -16.593500 -2.192510 6.469440 -0.000001 176.640000 17.751000 177.368000 -39.081100 -0.002282 -0.040193 0.038061 -0.097796 19.555900 -40.985400 0.000008 0.000006 0.619491 3.613510 -62.085400 -11.754300 -0.000006 -0.000006 -0.008661 -0.093345 -20.374900
0.000000 0.000000 0.000000 0.000000 0.000000 -0.000000 -1.215250 92.278000 -3.481390 86.978800 -4.441540 3.402340 15.735700 0.000005 -0.000001 93.278600 85.746800 -94.377500 8.984550 -0.406207 -0.000000 0.732757 0.553749 -2.199730 16.377300 -0.000001 -0.000001 2.276210 -2.998010 3.331370 6.456720 -0.000001 -0.000000 -2.018360 -1.258540 -9.476700 12.994200 -0.242716 4.980390 -88.820500 -3.542940 -71.573400 5.348090 -0.000007 -0.000001 25.807800 75.082500 -75.318900 24.328600 0.000019 0.000005 13.866800 1.844590 -82.571000 22.291600 -0.000001 0.000005 41.776100 5.602440 -30.752200 12.994500 -0.242716 -4.980390 92.290000 -4.823240 -64.564300 -5.348130 -0.000001 -0.000004 -70.313900 -55.625200 -107.278000 -24.328900 0.000322 -0.000009 -5.976270 -3.730840 -58.130600 -22.291500 -0.000108 -0.000004 21.215300 5.528560 -7.731640 -2.192480 -6.469440 -0.000000 -168.364000 -16.300900 -2.625810 39.081100 -0.000007 -0.000012 -0.167671 0.432206 21.203500 40.985400 -0.000006 -0.000013 -6.040770 1.804050 -63.028300 11.754300 -0.000000 0.000003 -0.000033 -0.000395 -16.593000 -2.192510 6.469440 -0.000001 176.644000 17.816800 177.407000 -39.081100 -0.002282 -0.040193 0.039742 -0.102200 19.614200 -40.985400 0.000008 0.000006 0.728505 3.589920 -62.271600 -11.754300 -0.000006 -0.000006 -0.008426 -0.091475 -20.298400
0.000000 0.000000 0.000000 0.000000 0.000000 -0.000000 -1.249910 92.283400 -3.407820 86.996100 -4.355760 3.372480 15.735700 0.000005 -0.000001 93.506000 85.803900 -94.601300 8.984550 -0.406207 -0.000000 0.617000 0.581346 -2.192100 16.377300 -0.000001 -0.000001 2.311090 -3.031320 3.341790 6.456720 -0.000001 -0.000000 -1.790830 -1.376300 -9.453870 12.994200 -0.242716 4.980390 -88.823900 -3.540700 -71.611500 5.348090 -0.000007 -0.000001 25.635600 75.076600 -75.160100 24.328600 0.000019 0.000005 13.852500 1.853070 -82.529300 22.291600 -0.000001 0.000005 41.563000 5.602010 -30.777900 12.994500 -0.242716 -4.980390 92.289400 -4.798370 -64.455300 -5.348130 -0.000001 -0.000004 -70.338400 -55.516000 -107.353000 -24.328900 0.000322 -0.000009 -6.129470 -3.831010 -58.106100 -22.291500 -0.000108 -0.000004 21.210500 5.531080 -7.842550 -2.192480 -6.469440 -0.000000 -168.339000 -16.355000 -2.551110 39.081100 -0.000007 -0.000012 -0.167821 0.435471 21.075800 40.985400 -0.000006 -0.000013 -6.054550 1.945030 -62.993500 11.754300 -0.000000 0.000003 -0.000034 -0.000399 -16.593100 -2.192510 6.469440 -0.000001 176.634000 17.863400 177.444000 -39.081100 -0.002282 -0.040193 0.038136 -0.097811 19.592200 -40.985400 0.000008 0.000006 0.596918 3.537430 -62.261900 -11.754300 -0.000006 -0.000006 -0.008409 -0.091336 -20.292800
0.000000 0.000000 0.000000 0.000000 0.000000 -0.000000 -1.291500 92.278100 -3.318810 86.974300 -4.261640 3.370720 15.735700 0.000005 -0.000001 93.443100 85.868700 -94.531000 8.984550 -0.406207 -0.000000 0.487986 0.565145 -2.176620 16.377300 -0.000001 -0.000001 2.439630 -3.096440 3.403750 6.456720 -0.000001 -0.000000 -1.691020 -1.416070 -9.459620 12.994200 -0.242716 4.980390 -88.814900 -3.560410 -71.575800 5.348090 -0.000007 -0.000001 25.787400 75.095500 -75.360800 24.328600 0.000019 0.000005 13.785400 1.855620 -82.481800 22.291600 -0.000001 0.000005 41.464700 5.603420 -30.692100 12.994500 -0.242716 -4.980390 92.274000 -4.762700 -64.439900 -5.348130 -0.000001 -0.000004 -70.192300 -55.505800 -107.309000 -24.328900 0.000322 -0.000009 -6.056170 -3.800010 -58.003000 -22.291500 -0.000108 -0.000004 21.171100 5.531310 -7.853330 -2.192480 -6.469440 -0.000000 -168.284000 -16.317900 -2.510060 39.081100 -0.000007 -0.000012 -0.168057 0.436231 21.069300 40.985400 -0.000006 -0.000013 -6.083660 1.982530 -63.027800 11.754300 -0.000000 0.000003 -0.000036 -0.000428 -16.594300 -2.192510 6.469440 -0.000001 176.659000 17.884300 177.546000 -39.081100 -0.002282 -0.040193 0.038852 -0.099977 19.564000 -40.985400 0.000008 0.000006 0.675811 3.481080 -62.365400 -11.754300 -0.000006 -0.000006 -0.008352 -0.090883 -20.274300
0.000000 0.000000 0.000000 0.000000 0.000000 -0.000000 -1.337570 92.264600 -3.233830 86.951400 -4.155370 3.311800 15.735700 0.000005 -0.000001 93.303000 85.945500 -94.373200 8.984550 -0.406207 -0.000000 0.335411 0.536443 -2.140490 16.377300 -0.000001 -0.000001 2.468320 -3.115720 3.424710 6.456720 -0.000001 -0.000000 -1.556120 -1.453930 -9.498590 12.994200 -0.242716 4.980390 -88.821200 -3.538030 -71.558800 5.348090 -0.000007 -0.000001 25.572800 75.128500 -75.168100 24.328600 0.000019 0.000005 13.766500 1.869420 -82.415800 22.291600 -0.000001 0.000005 41.356000 5.602590 -30.742800 12.994500 -0.242716 -4.980390 92.276300 -4.752660 -64.370000 -5.348130 -0.000001 -0.000004 -70.083700 -55.514600 -107.328000 -24.328900 0.000322 -0.000009 -6.047460 -3.808790 -57.906200 -22.291500 -0.000108 -0.000004 21.087600 5.532020 -7.884350 -2.192480 -6.469440 -0.000000 -168.238000 -16.261800 -2.555790 39.081100 -0.000007 -0.000012 -0.169209 0.438127 21.117300 40.985400 -0.000006 -0.000013 -6.116080 2.037380 -63.091500 11.754300 -0.000000 0.000003 -0.000037 -0.000434 -16.594500 -2.192510 6.469440 -0.000001 176.709000 17.964200 177.590000 -39.081100 -0.002282 -0.040193 0.038990 -0.100552 19.530600 -40.985400 0.000008 0.000006 0.673103 3.404700 -62.505800 -11.754300 -0.000006 -0.000006 -0.008386 -0.091156 -20.285400
0.000000 0.000000 0.000000 0.000000 0.000000 -0.000000 -1.380160 92.261700 -3.132610 86.909100 -4.065640 3.292690 15.735700 0.000005 -0.000001 93.243000 86.009800 -94.305700 8.984550 -0.406207 -0.000000 0.207313 0.521410 -2.124800 16.377300 -0.000001 -0.000001 2.474250 -3.174660 3.484590 6.456720 -0.000001 -0.000000 -1.493600 -1.486150 -9.506340 12.994200 -0.242716 4.980390 -88.821500 -3.534720 -71.547000 5.348090 -0.000007 -0.000001 25.375400 75.185300 -74.978900 24.328600 0.000019 0.000005 13.683800 1.865240 -82.385600 22.291600 -0.000001 0.000005 41.309200 5.602320 -30.758600 12.994500 -0.242716 -4.980390 92.266800 -4.718170 -64.301400 -5.348130 -0.000001 -0.000004 -69.884400 -55.582000 -107.224000 -24.328900 0.000322 -0.000009 -5.974770 -3.759560 -57.926900 -22.291500 -0.000108 -0.000004 21.095900 5.529480 -7.772400 -2.192480 -6.469440 -0.000000 -168.165000 -16.215100 -2.519270 39.081100 -0.000007 -0.000012 -0.169645 0.439622 21.101300 40.985400 -0.000006 -0.000013 -6.146680 2.079090 -63.129300 11.754300 -0.000000 0.000003 -0.000039 -0.000458 -16.595400 -2.192510 6.469440 -0.000001 176.750000 17.998700 177.660000 -39.081100 -0.002282 -0.040193 0.038677 -0.099659 19.532400 -40.985400 0.000008 0.000006 0.682172 3.376520 -62.547100 -11.754300 -0.000006 -0.000006 -0.008268 -0.090208 -20.246700
0.000000 0.000000 0.000000 0.000000 0.000000 -0.000000 -1.413560 92.247800 -3.033070 86.941400 -4.008490 3.345180 15.735700 0.000005 -0.000001 93.020500 86.043800 -94.107200 8.984550 -0.406207 -0.000000 0.140968 0.489106 -2.172730 16.377300 -0.000001 -0.000001 2.480880 -3.221170 3.508420 6.456720 -0.000001 -0.000000 -1.515020 -1.486480 -9.463010 12.994200 -0.242716 4.980390 -88.818800 -3.536780 -71.518900 5.348090 -0.000007 -0.000001 24.900300 75.258900 -74.485100 24.328600 0.000019 0.000005 13.575500 1.851680 -82.378300 22.291600 -0.000001 0.000005 41.123400 5.600620 -30.861600 12.994500 -0.242716 -4.980390 92.245400 -4.671220 -64.290100 -5.348130 -0.000001 -0.000004 -69.738500 -55.659600 -107.144000 -24.328900 0.000322 -0.000009 -6.004530 -3.766970 -58.005200 -22.291500 -0.000108 -0.000004 21.124800 5.529700 -7.782080 -2.192480 -6.469440 -0.000000 -168.148000 -16.047800 -2.390030 39.081100 -0.000007 -0.000012 -0.170710 0.442961 21.076100 40.985400 -0.000006 -0.000013 -6.205690 2.036210 -63.193200 11.754300 -0.000000 0.000003 -0.000032 -0.000387 -16.592700 -2.192510 6.469440 -0.000001 176.699000 18.026300 177.768000 -39.081100 -0.002282 -0.040193 0.039133 -0.100550 19.603100 -40.985400 0.000008 0.000006 0.701276 3.344700 -62.698900 -11.754300 -0.000006 -0.000006 -0.008409 -0.091341 -20.293000
